{
	"asset":{
		"generator":"Khronos glTF Blender I/O v4.2.70",
		"version":"2.0"
	},
	"scene":0,
	"scenes":[
		{
			"name":"Scene",
			"nodes":[
				16
			]
		}
	],
	"nodes":[
		{
			"mesh":0,
			"name":"Cylinder.000_Candle_0"
		},
		{
			"mesh":1,
			"name":"Cylinder.000_Candle_0.001"
		},
		{
			"mesh":2,
			"name":"Cylinder.000_Candle_0.002"
		},
		{
			"mesh":3,
			"name":"Cylinder.000_Candle_0.003"
		},
		{
			"mesh":4,
			"name":"Cylinder.000_Candle_0.004"
		},
		{
			"mesh":5,
			"name":"Cylinder.000_Candle_0.005"
		},
		{
			"mesh":6,
			"name":"Cylinder.000_Candle_0.006"
		},
		{
			"mesh":7,
			"name":"Cylinder.000_Candle_0.007"
		},
		{
			"children":[
				0,
				1,
				2,
				3,
				4,
				5,
				6,
				7
			],
			"name":"Cylinder.000",
			"rotation":[
				-0.70710688829422,
				0,
				0,
				0.7071066498756409
			],
			"scale":[
				100,
				99.99998474121094,
				99.99998474121094
			],
			"translation":[
				0,
				100,
				0
			]
		},
		{
			"name":"Cylinder.001",
			"rotation":[
				-0.70710688829422,
				0,
				0,
				0.7071066498756409
			],
			"scale":[
				100,
				99.99998474121094,
				99.99998474121094
			],
			"translation":[
				0,
				100,
				0
			]
		},
		{
			"mesh":8,
			"name":"Cylinder.002_Fire_0"
		},
		{
			"children":[
				10
			],
			"name":"Cylinder.002",
			"rotation":[
				-0.70710688829422,
				0,
				0,
				0.7071066498756409
			],
			"scale":[
				100,
				99.99998474121094,
				99.99998474121094
			],
			"translation":[
				0,
				100,
				0
			]
		},
		{
			"mesh":9,
			"name":"Plane_Stamp_0"
		},
		{
			"children":[
				12
			],
			"name":"Plane",
			"rotation":[
				-0.70710688829422,
				0,
				0,
				0.7071066498756409
			],
			"scale":[
				100,
				99.99998474121094,
				99.99998474121094
			],
			"translation":[
				0,
				-12.165336608886719,
				0
			]
		},
		{
			"children":[
				8,
				9,
				11,
				13
			],
			"name":"RootNode"
		},
		{
			"children":[
				14
			],
			"name":"449b5d2e46c84b14a85a2cbaafb3ea63.fbx",
			"rotation":[
				0.70710688829422,
				0,
				0,
				0.7071066498756409
			]
		},
		{
			"children":[
				15
			],
			"name":"Sketchfab_model",
			"rotation":[
				-0.7071069478988647,
				0,
				0,
				0.7071066498756409
			],
			"scale":[
				0.003620301838964224,
				0.0036203020717948675,
				0.0036203020717948675
			],
			"translation":[
				0,
				3.62363425665535e-05,
				0
			]
		}
	],
	"materials":[
		{
			"doubleSided":true,
			"name":"Candle",
			"pbrMetallicRoughness":{
				"baseColorFactor":[
					0.5386544466018677,
					0.5540791153907776,
					0.21162086725234985,
					1
				],
				"metallicFactor":0,
				"roughnessFactor":0.4231656491756439
			}
		},
		{
			"alphaMode":"BLEND",
			"doubleSided":true,
			"emissiveFactor":[
				1,
				1,
				1
			],
			"emissiveTexture":{
				"index":0
			},
			"name":"Fire",
			"pbrMetallicRoughness":{
				"baseColorTexture":{
					"index":1
				},
				"metallicFactor":0,
				"roughnessFactor":0.8040408492088318
			}
		},
		{
			"doubleSided":true,
			"name":"Stamp",
			"pbrMetallicRoughness":{
				"baseColorFactor":[
					0.016489900648593903,
					0.016489900648593903,
					0.016489900648593903,
					1
				],
				"metallicFactor":0,
				"roughnessFactor":0.4824947118759155
			}
		}
	],
	"meshes":[
		{
			"name":"Cylinder.000_Candle_0",
			"primitives":[
				{
					"attributes":{
						"POSITION":0,
						"NORMAL":1,
						"TEXCOORD_0":2
					},
					"indices":3,
					"material":0
				}
			]
		},
		{
			"name":"Cylinder.000_Candle_0.001",
			"primitives":[
				{
					"attributes":{
						"POSITION":4,
						"NORMAL":5,
						"TEXCOORD_0":6
					},
					"indices":7,
					"material":0
				}
			]
		},
		{
			"name":"Cylinder.000_Candle_0.002",
			"primitives":[
				{
					"attributes":{
						"POSITION":8,
						"NORMAL":9,
						"TEXCOORD_0":10
					},
					"indices":11,
					"material":0
				}
			]
		},
		{
			"name":"Cylinder.000_Candle_0.003",
			"primitives":[
				{
					"attributes":{
						"POSITION":12,
						"NORMAL":13,
						"TEXCOORD_0":14
					},
					"indices":15,
					"material":0
				}
			]
		},
		{
			"name":"Cylinder.000_Candle_0.004",
			"primitives":[
				{
					"attributes":{
						"POSITION":16,
						"NORMAL":17,
						"TEXCOORD_0":18
					},
					"indices":19,
					"material":0
				}
			]
		},
		{
			"name":"Cylinder.000_Candle_0.005",
			"primitives":[
				{
					"attributes":{
						"POSITION":20,
						"NORMAL":21,
						"TEXCOORD_0":22
					},
					"indices":23,
					"material":0
				}
			]
		},
		{
			"name":"Cylinder.000_Candle_0.006",
			"primitives":[
				{
					"attributes":{
						"POSITION":24,
						"NORMAL":25,
						"TEXCOORD_0":26
					},
					"indices":27,
					"material":0
				}
			]
		},
		{
			"name":"Cylinder.000_Candle_0.007",
			"primitives":[
				{
					"attributes":{
						"POSITION":28,
						"NORMAL":29,
						"TEXCOORD_0":30
					},
					"indices":31,
					"material":0
				}
			]
		},
		{
			"name":"Cylinder.002_Fire_0",
			"primitives":[
				{
					"attributes":{
						"POSITION":32,
						"NORMAL":33,
						"TEXCOORD_0":34
					},
					"indices":35,
					"material":1
				}
			]
		},
		{
			"name":"Plane_Stamp_0",
			"primitives":[
				{
					"attributes":{
						"POSITION":36,
						"NORMAL":37
					},
					"indices":38,
					"material":2
				}
			]
		}
	],
	"textures":[
		{
			"sampler":0,
			"source":0
		},
		{
			"sampler":0,
			"source":1
		}
	],
	"images":[
		{
			"mimeType":"image/jpeg",
			"name":"Fire_emissive",
			"uri":"Fire_emissive.jpg"
		},
		{
			"mimeType":"image/png",
			"name":"Fire_baseColor",
			"uri":"Fire_baseColor.png"
		}
	],
	"accessors":[
		{
			"bufferView":0,
			"componentType":5126,
			"count":65611,
			"max":[
				1.0657671689987183,
				1.1073570251464844,
				2.8352487087249756
			],
			"min":[
				-1.7911721467971802,
				-1.6638144254684448,
				-1.1004998683929443
			],
			"type":"VEC3"
		},
		{
			"bufferView":1,
			"componentType":5126,
			"count":65611,
			"type":"VEC3"
		},
		{
			"bufferView":2,
			"componentType":5126,
			"count":65611,
			"type":"VEC2"
		},
		{
			"bufferView":3,
			"componentType":5125,
			"count":335646,
			"type":"SCALAR"
		},
		{
			"bufferView":4,
			"componentType":5126,
			"count":65615,
			"max":[
				1.6526011228561401,
				1.7918331623077393,
				2.7415740489959717
			],
			"min":[
				-1.6869487762451172,
				-1.677151083946228,
				-1.2320812940597534
			],
			"type":"VEC3"
		},
		{
			"bufferView":5,
			"componentType":5126,
			"count":65615,
			"type":"VEC3"
		},
		{
			"bufferView":6,
			"componentType":5126,
			"count":65615,
			"type":"VEC2"
		},
		{
			"bufferView":7,
			"componentType":5125,
			"count":327021,
			"type":"SCALAR"
		},
		{
			"bufferView":8,
			"componentType":5126,
			"count":65605,
			"max":[
				1.4028419256210327,
				1.7918331623077393,
				2.702347755432129
			],
			"min":[
				-1.5773319005966187,
				-1.199194073677063,
				-1.291675090789795
			],
			"type":"VEC3"
		},
		{
			"bufferView":9,
			"componentType":5126,
			"count":65605,
			"type":"VEC3"
		},
		{
			"bufferView":10,
			"componentType":5126,
			"count":65605,
			"type":"VEC2"
		},
		{
			"bufferView":11,
			"componentType":5125,
			"count":330909,
			"type":"SCALAR"
		},
		{
			"bufferView":12,
			"componentType":5126,
			"count":65578,
			"max":[
				1.606352686882019,
				0.12035603076219559,
				2.483768939971924
			],
			"min":[
				-1.6626503467559814,
				-1.6892396211624146,
				-1.1291444301605225
			],
			"type":"VEC3"
		},
		{
			"bufferView":13,
			"componentType":5126,
			"count":65578,
			"type":"VEC3"
		},
		{
			"bufferView":14,
			"componentType":5126,
			"count":65578,
			"type":"VEC2"
		},
		{
			"bufferView":15,
			"componentType":5125,
			"count":340509,
			"type":"SCALAR"
		},
		{
			"bufferView":16,
			"componentType":5126,
			"count":65572,
			"max":[
				1.210378885269165,
				1.7539279460906982,
				2.757229804992676
			],
			"min":[
				-1.253419280052185,
				-1.81954026222229,
				-1.2965739965438843
			],
			"type":"VEC3"
		},
		{
			"bufferView":17,
			"componentType":5126,
			"count":65572,
			"type":"VEC3"
		},
		{
			"bufferView":18,
			"componentType":5126,
			"count":65572,
			"type":"VEC2"
		},
		{
			"bufferView":19,
			"componentType":5125,
			"count":345615,
			"type":"SCALAR"
		},
		{
			"bufferView":20,
			"componentType":5126,
			"count":65592,
			"max":[
				0.11231386661529541,
				1.7539279460906982,
				2.849398612976074
			],
			"min":[
				-1.6836613416671753,
				-1.5385229587554932,
				-1.2373555898666382
			],
			"type":"VEC3"
		},
		{
			"bufferView":21,
			"componentType":5126,
			"count":65592,
			"type":"VEC3"
		},
		{
			"bufferView":22,
			"componentType":5126,
			"count":65592,
			"type":"VEC2"
		},
		{
			"bufferView":23,
			"componentType":5125,
			"count":338643,
			"type":"SCALAR"
		},
		{
			"bufferView":24,
			"componentType":5126,
			"count":65702,
			"max":[
				1.6509157419204712,
				1.788776159286499,
				2.759187936782837
			],
			"min":[
				-1.791419267654419,
				-1.8190224170684814,
				-1.2965739965438843
			],
			"type":"VEC3"
		},
		{
			"bufferView":25,
			"componentType":5126,
			"count":65702,
			"type":"VEC3"
		},
		{
			"bufferView":26,
			"componentType":5126,
			"count":65702,
			"type":"VEC2"
		},
		{
			"bufferView":27,
			"componentType":5125,
			"count":259326,
			"type":"SCALAR"
		},
		{
			"bufferView":28,
			"componentType":5126,
			"count":34607,
			"max":[
				1.5968947410583496,
				1.7535897493362427,
				2.8952858448028564
			],
			"min":[
				-1.7906742095947266,
				-1.8085037469863892,
				-1.2571868896484375
			],
			"type":"VEC3"
		},
		{
			"bufferView":29,
			"componentType":5126,
			"count":34607,
			"type":"VEC3"
		},
		{
			"bufferView":30,
			"componentType":5126,
			"count":34607,
			"type":"VEC2"
		},
		{
			"bufferView":31,
			"componentType":5123,
			"count":102027,
			"type":"SCALAR"
		},
		{
			"bufferView":32,
			"componentType":5126,
			"count":556,
			"max":[
				0.41019946336746216,
				0.04305348917841911,
				3.572770118713379
			],
			"min":[
				-0.44745466113090515,
				-0.05308164656162262,
				2.2461459636688232
			],
			"type":"VEC3"
		},
		{
			"bufferView":33,
			"componentType":5126,
			"count":556,
			"type":"VEC3"
		},
		{
			"bufferView":34,
			"componentType":5126,
			"count":556,
			"type":"VEC2"
		},
		{
			"bufferView":35,
			"componentType":5123,
			"count":3072,
			"type":"SCALAR"
		},
		{
			"bufferView":36,
			"componentType":5126,
			"count":2538,
			"max":[
				0.062201857566833496,
				0.061758968979120255,
				3.82039213180542
			],
			"min":[
				-0.17146433889865875,
				-0.02863200008869171,
				3.345613956451416
			],
			"type":"VEC3"
		},
		{
			"bufferView":37,
			"componentType":5126,
			"count":2538,
			"type":"VEC3"
		},
		{
			"bufferView":38,
			"componentType":5123,
			"count":3648,
			"type":"SCALAR"
		}
	],
	"bufferViews":[
		{
			"buffer":0,
			"byteLength":787332,
			"byteOffset":0,
			"target":34962
		},
		{
			"buffer":0,
			"byteLength":787332,
			"byteOffset":787332,
			"target":34962
		},
		{
			"buffer":0,
			"byteLength":524888,
			"byteOffset":1574664,
			"target":34962
		},
		{
			"buffer":0,
			"byteLength":1342584,
			"byteOffset":2099552,
			"target":34963
		},
		{
			"buffer":0,
			"byteLength":787380,
			"byteOffset":3442136,
			"target":34962
		},
		{
			"buffer":0,
			"byteLength":787380,
			"byteOffset":4229516,
			"target":34962
		},
		{
			"buffer":0,
			"byteLength":524920,
			"byteOffset":5016896,
			"target":34962
		},
		{
			"buffer":0,
			"byteLength":1308084,
			"byteOffset":5541816,
			"target":34963
		},
		{
			"buffer":0,
			"byteLength":787260,
			"byteOffset":6849900,
			"target":34962
		},
		{
			"buffer":0,
			"byteLength":787260,
			"byteOffset":7637160,
			"target":34962
		},
		{
			"buffer":0,
			"byteLength":524840,
			"byteOffset":8424420,
			"target":34962
		},
		{
			"buffer":0,
			"byteLength":1323636,
			"byteOffset":8949260,
			"target":34963
		},
		{
			"buffer":0,
			"byteLength":786936,
			"byteOffset":10272896,
			"target":34962
		},
		{
			"buffer":0,
			"byteLength":786936,
			"byteOffset":11059832,
			"target":34962
		},
		{
			"buffer":0,
			"byteLength":524624,
			"byteOffset":11846768,
			"target":34962
		},
		{
			"buffer":0,
			"byteLength":1362036,
			"byteOffset":12371392,
			"target":34963
		},
		{
			"buffer":0,
			"byteLength":786864,
			"byteOffset":13733428,
			"target":34962
		},
		{
			"buffer":0,
			"byteLength":786864,
			"byteOffset":14520292,
			"target":34962
		},
		{
			"buffer":0,
			"byteLength":524576,
			"byteOffset":15307156,
			"target":34962
		},
		{
			"buffer":0,
			"byteLength":1382460,
			"byteOffset":15831732,
			"target":34963
		},
		{
			"buffer":0,
			"byteLength":787104,
			"byteOffset":17214192,
			"target":34962
		},
		{
			"buffer":0,
			"byteLength":787104,
			"byteOffset":18001296,
			"target":34962
		},
		{
			"buffer":0,
			"byteLength":524736,
			"byteOffset":18788400,
			"target":34962
		},
		{
			"buffer":0,
			"byteLength":1354572,
			"byteOffset":19313136,
			"target":34963
		},
		{
			"buffer":0,
			"byteLength":788424,
			"byteOffset":20667708,
			"target":34962
		},
		{
			"buffer":0,
			"byteLength":788424,
			"byteOffset":21456132,
			"target":34962
		},
		{
			"buffer":0,
			"byteLength":525616,
			"byteOffset":22244556,
			"target":34962
		},
		{
			"buffer":0,
			"byteLength":1037304,
			"byteOffset":22770172,
			"target":34963
		},
		{
			"buffer":0,
			"byteLength":415284,
			"byteOffset":23807476,
			"target":34962
		},
		{
			"buffer":0,
			"byteLength":415284,
			"byteOffset":24222760,
			"target":34962
		},
		{
			"buffer":0,
			"byteLength":276856,
			"byteOffset":24638044,
			"target":34962
		},
		{
			"buffer":0,
			"byteLength":204054,
			"byteOffset":24914900,
			"target":34963
		},
		{
			"buffer":0,
			"byteLength":6672,
			"byteOffset":25118956,
			"target":34962
		},
		{
			"buffer":0,
			"byteLength":6672,
			"byteOffset":25125628,
			"target":34962
		},
		{
			"buffer":0,
			"byteLength":4448,
			"byteOffset":25132300,
			"target":34962
		},
		{
			"buffer":0,
			"byteLength":6144,
			"byteOffset":25136748,
			"target":34963
		},
		{
			"buffer":0,
			"byteLength":30456,
			"byteOffset":25142892,
			"target":34962
		},
		{
			"buffer":0,
			"byteLength":30456,
			"byteOffset":25173348,
			"target":34962
		},
		{
			"buffer":0,
			"byteLength":7296,
			"byteOffset":25203804,
			"target":34963
		}
	],
	"samplers":[
		{
			"magFilter":9729,
			"minFilter":9987
		}
	],
	"buffers":[
		{
			"byteLength":25211100,
			"uri":"scene.bin"
		}
	]
}
