{
  "accessors": [
    {
      "bufferView": 2,
      "componentType": 5126,
      "count": 2896,
      "max": [
        4112.1259765625,
        3715.8740234375,
        4341.3857421875
      ],
      "min": [
        0.0,
        0.0,
        0.0
      ],
      "type": "VEC3"
    },
    {
      "bufferView": 2,
      "byteOffset": 34752,
      "componentType": 5126,
      "count": 2896,
      "max": [
        0.9793051481246948,
        0.9999042749404907,
        0.997977077960968
      ],
      "min": [
        -0.9999350309371948,
        -0.9999042749404907,
        -0.9986927509307861
      ],
      "type": "VEC3"
    },
    {
      "bufferView": 1,
      "componentType": 5126,
      "count": 2896,
      "max": [
        1.0,
        1.0
      ],
      "min": [
        0.0,
        0.0
      ],
      "type": "VEC2"
    },
    {
      "bufferView": 0,
      "componentType": 5125,
      "count": 2970,
      "type": "SCALAR"
    }
  ],
  "asset": {
    "extras": {
      "author": "Warrior364 (https://sketchfab.com/Warrior364)",
      "license": "CC-BY-4.0 (http://creativecommons.org/licenses/by/4.0/)",
      "source": "https://sketchfab.com/3d-models/the-legend-of-zelda-majoras-mask-3d-moon-062f9773cb5b43338a60780e1e61c4bc",
      "title": "The Legend Of Zelda Majoras Mask 3D - Moon"
    },
    "generator": "Sketchfab-12.68.0",
    "version": "2.0"
  },
  "bufferViews": [
    {
      "buffer": 0,
      "byteLength": 11880,
      "name": "floatBufferViews",
      "target": 34963
    },
    {
      "buffer": 0,
      "byteLength": 23168,
      "byteOffset": 11880,
      "byteStride": 8,
      "name": "floatBufferViews",
      "target": 34962
    },
    {
      "buffer": 0,
      "byteLength": 69504,
      "byteOffset": 35048,
      "byteStride": 12,
      "name": "floatBufferViews",
      "target": 34962
    }
  ],
  "buffers": [
    {
      "byteLength": 104552,
      "uri": "scene.bin"
    }
  ],
  "images": [
    {
      "uri": "textures/material_02FDF718_baseColor.png"
    }
  ],
  "materials": [
    {
      "doubleSided": true,
      "emissiveTexture": {
        "index": 0
      },
      "name": "material_02FDF718",
      "pbrMetallicRoughness": {
        "baseColorTexture": {
          "index": 0
        },
        "metallicFactor": 0.0
      }
    }
  ],
  "meshes": [
    {
      "name": "Object_0",
      "primitives": [
        {
          "attributes": {
            "NORMAL": 1,
            "POSITION": 0,
            "TEXCOORD_0": 2
          },
          "indices": 3,
          "material": 0,
          "mode": 4
        }
      ]
    }
  ],
  "nodes": [
    {
      "children": [
        1
      ],
      "matrix": [
        0.007667914964258671,
        0.9999706149101257,
        3.219640246612282e-15,
        0.0,
        -0.9999706149101257,
        0.007667914964258671,
        5.719351195968394e-15,
        0.0,
        3.219646771412954e-15,
        -5.717648576819556e-15,
        1.0,
        0.0,
        -65.71526336669922,
        180.85014343261722,
        -114.62902832031246,
        1.0
      ],
      "name": "Sketchfab_model"
    },
    {
      "children": [
        2
      ],
      "matrix": [
        1.0,
        0.0,
        0.0,
        0.0,
        0.0,
        1.0,
        0.0,
        0.0,
        0.0,
        0.0,
        1.0,
        0.0,
        -2122.2841796875,
        -1857.93701171875,
        -2056.06298828125,
        1.0
      ],
      "name": "moon.obj.cleaner.materialmerger.gles"
    },
    {
      "children": [
        3
      ],
      "name": "Object_2"
    },
    {
      "mesh": 0,
      "name": "Object_3"
    }
  ],
  "samplers": [
    {
      "magFilter": 9729,
      "minFilter": 9987,
      "wrapS": 10497,
      "wrapT": 10497
    }
  ],
  "scene": 0,
  "scenes": [
    {
      "name": "Sketchfab_Scene",
      "nodes": [
        0
      ]
    }
  ],
  "textures": [
    {
      "sampler": 0,
      "source": 0
    }
  ]
}
